# xmcd CD database file generated by OrangeCD 6.3
#
# Track frame offsets:
#	150
#	6972
#	18769
#	31392
#	42865
#	56017
#	63409
#	74682
#	84381
#	91819
#	105949
#	114140
#	132114
#	141900
#	152513
#
# Disc length: 2230 seconds
#
# Revision: 2
# Processed by: cddbd v1.5.2PL0 Copyright (c) Steve Scherf et al.
# Submitted via: OrangeCD 6.3
#
DISCID=b508b40f
DTITLE=Haunted George - Bone Hauler
DYEAR=2006
DGENRE=Unknown
TTITLE0=This Is A Test
TTITLE1=Graves In The Desert
TTITLE2=Devil's Canyon
TTITLE3=The Embalmer
TTITLE4=The Ghosts Of The Old San Juan
TTITLE5=Road Ghoul
TTITLE6=Bone Hauler
TTITLE7=She Told Me Her Name Was Lisa
TTITLE8=Depraved
TTITLE9=Shotgun In My Mouth
TTITLE10=Howliin'
TTITLE11=Ghoul From The Mine
TTITLE12=What Kinda Tracks Are Those?
TTITLE13=Voices From Beyond
TTITLE14=The Night Of The Vampire
EXTD=Dead Beat Records, DB 64
EXTT0=
EXTT1=
EXTT2=
EXTT3=
EXTT4=
EXTT5=
EXTT6=
EXTT7=
EXTT8=
EXTT9=
EXTT10=
EXTT11=
EXTT12=
EXTT13=
EXTT14=
PLAYORDER=
